<?xml version="1.0" encoding="utf-8"?>
<svg viewBox="0 0 109 124" xmlns="http://www.w3.org/2000/svg">
  <defs>
    <style>.cls-e,.cls-f{fill:none;stroke-linecap:round;stroke-miterlimit:10;stroke-width:2px;}.cls-e{stroke:#673ab7;}.cls-f{stroke:#323233;}</style>
  </defs>
  <title>Sovereignty</title>
  <g id="Layer_2" data-name="Layer 2">
    <g id="Features">
      <path class="st0" d="M 50.687 66.909 C 50.687 66.909 50.716 66.872 50.687 66.909 C 50.53 67.115 51.901 65.246 53.097 64.666 C 53.167 64.632 53.237 64.599 53.306 64.567 L 53.302 64.558 C 53.302 64.558 53.693 65.767 55.057 66.284 L 55.057 66.284 C 53.514 67.602 51.224 67.715 51.214 67.701 C 50.905 67.701 50.644 67.434 50.644 67.125 C 50.644 67.024 50.647 66.975 50.693 66.893" style="fill: rgb(88, 24, 69);"/>
      <path class="st1" d="M 55.085 58.801 C 54.885 58.801 54.709 58.906 54.61 59.065 L 50.644 67.005 L 50.68 66.998 C 50.838 66.793 51.902 65.317 53.097 64.737 C 54.311 64.147 55.415 63.932 55.978 63.856 C 55.986 63.811 55.994 63.767 56.001 63.722 C 56.243 62.203 55.937 60.473 55.67 59.377 C 55.62 59.233 55.58 59.124 55.554 59.057 C 55.553 59.055 55.552 59.053 55.552 59.053 L 55.549 59.048 C 55.449 58.899 55.278 58.801 55.085 58.801" style="fill: rgb(255, 87, 51);"/>
      <path class="st2" d="M 51.187 67.727 L 59.081 67.727 C 59.39 67.727 59.642 67.456 59.642 67.147 C 59.642 67.045 59.615 66.935 59.567 66.852 L 59.568 66.852 L 55.522 58.979 L 55.525 58.983 C 55.525 58.983 56.573 61.573 56.344 63.746 C 56.287 64.291 56.149 64.822 55.893 65.267 C 54.579 67.561 51.302 67.683 51.187 67.727" style="fill: rgb(144, 12, 63); opacity: 0.9;"/>
      <g transform="matrix(0.506173, 0, 0, 0.477381, -69.86573, -48.40543)" style="">
        <path class="st0" d="M 149.5 234.5 C 149.5 233.95 236.5 139.5 343.5 233.5" style="stroke-width: 2px; stroke: rgb(50, 50, 51); fill: none; stroke-linecap: round; stroke-miterlimit: 10;"/>
        <ellipse class="st1" cx="247.5" cy="235.05" rx="41" ry="42.38" style="stroke-width: 2px; stroke: rgb(50, 50, 51); fill: none; stroke-miterlimit: 10;"/>
        <path class="st3" d="M 232.74 218.68 C 236.59 214.99 241.75 212.73 247.41 212.73 C 259.33 212.73 269 222.72 269 235.04 C 269 247.36 259.34 257.35 247.41 257.35 C 238.25 257.35 230.42 251.45 227.29 243.13" style="stroke-width: 2px; stroke: rgb(50, 50, 51); fill: none; stroke-linecap: round; stroke-linejoin: round; stroke-miterlimit: 10;"/>
      </g>
    </g>
  </g>
</svg>