<?xml version="1.0" encoding="utf-8"?>
<svg viewBox="0 0 128 103.82" xmlns="http://www.w3.org/2000/svg">
  <defs>
    <style>.cls-k,.cls-l{fill:none;stroke-linecap:round;stroke-miterlimit:10;stroke-width:2px;}.cls-k{stroke:#323233;}.cls-l{stroke:#673ab7;}</style>
  </defs>
  <title>scalability</title>
  <g id="Layer_2" data-name="Layer 2">
    <g id="Features">
      <path class="st0" d="M 42.442 74.301 C 42.442 74.301 42.577 74.123 42.442 74.301 C 41.706 75.269 48.147 66.489 53.764 63.762 C 54.094 63.603 54.422 63.448 54.747 63.299 L 54.728 63.255 C 54.728 63.255 56.564 68.935 62.974 71.365 L 62.974 71.366 C 55.724 77.557 44.965 78.089 44.919 78.023 C 43.468 78.023 42.236 76.766 42.236 75.314 C 42.236 74.842 42.253 74.61 42.472 74.226" style="fill: rgb(88, 24, 69);"/>
      <path class="st1" d="M 63.106 36.205 C 62.163 36.205 61.336 36.702 60.872 37.447 L 42.237 74.753 L 42.408 74.718 C 43.151 73.755 48.148 66.821 53.764 64.094 C 59.469 61.324 64.654 60.315 67.3 59.957 C 67.338 59.746 67.379 59.537 67.412 59.326 C 68.546 52.188 67.11 44.062 65.853 38.912 C 65.619 38.237 65.429 37.723 65.31 37.411 C 65.304 37.397 65.3 37.388 65.3 37.388 L 65.284 37.364 C 64.813 36.665 64.013 36.205 63.106 36.205" style="fill: rgb(255, 87, 51);"/>
      <path class="st2" d="M 44.793 78.143 L 81.882 78.143 C 83.334 78.143 84.514 76.871 84.514 75.42 C 84.514 74.938 84.388 74.422 84.162 74.034 L 84.168 74.03 L 65.158 37.039 L 65.173 37.059 C 65.173 37.059 70.097 49.227 69.02 59.436 C 68.75 61.997 68.101 64.495 66.903 66.587 C 60.728 77.361 45.329 77.937 44.793 78.143" style="fill: rgb(144, 12, 63); opacity: 0.9;"/>
      <rect class="cls-k" x="34" y="27.82" width="60" height="60" rx="5.09" ry="5.09"/>
      <path class="cls-k" d="M86,28.82V22.35A21.35,21.35,0,0,0,64.65,1h-.3A21.35,21.35,0,0,0,43,22.35v6.47"/>
      <polyline class="cls-k" points="100 49.82 111 49.82 111 41.82 121 41.82"/>
      <polyline class="cls-k" points="122 67.82 111 67.82 111 59.82 101 59.82"/>
      <circle class="cls-k" cx="124" cy="41.82" r="3"/>
      <circle class="cls-k" cx="124" cy="67.82" r="3"/>
      <circle class="cls-k" cx="114" cy="99.82" r="3"/>
      <polyline class="cls-k" points="28 49.82 17 49.82 17 41.82 7 41.82"/>
      <polyline class="cls-k" points="7 67.82 18 67.82 18 59.82 28 59.82"/>
      <circle class="cls-k" cx="4" cy="41.82" r="3"/>
      <circle class="cls-k" cx="4" cy="67.82" r="3"/>
      <circle class="cls-k" cx="14" cy="99.82" r="3"/>
      <line class="cls-k" x1="17" y1="99.82" x2="111" y2="99.82"/>
      <line class="cls-k" x1="64" y1="92.82" x2="64" y2="99.82"/>
    </g>
  </g>
</svg>