<?xml version="1.0" encoding="utf-8"?>
<svg viewBox="0 0 109 124" xmlns="http://www.w3.org/2000/svg">
  <defs>
    <style>.cls-e,.cls-f{fill:none;stroke-linecap:round;stroke-miterlimit:10;stroke-width:2px;}.cls-e{stroke:#673ab7;}.cls-f{stroke:#323233;}</style>
  </defs>
  <title>Sovereignty</title>
  <g id="Layer_2" data-name="Layer 2">
    <g id="Features">
      <circle class="cls-f" cx="6" cy="33" r="5"/>
      <circle class="cls-f" cx="6" cy="91" r="5"/>
      <circle class="cls-f" cx="55" cy="118" r="5"/>
      <circle class="cls-f" cx="103" cy="90" r="5"/>
      <circle class="cls-f" cx="103" cy="33" r="5"/>
      <circle class="cls-f" cx="55" cy="6" r="5"/>
      <line class="cls-f" x1="15.67" y1="39.67" x2="43.71" y2="55.85"/>
      <line class="cls-f" x1="93.63" y1="39.67" x2="65.59" y2="55.85"/>
      <line class="cls-f" x1="15.67" y1="84.88" x2="43.71" y2="68.69"/>
      <line class="cls-f" x1="93.63" y1="84.88" x2="65.59" y2="68.69"/>
      <line class="cls-f" x1="55" y1="48" x2="55" y2="20"/>
      <line class="cls-f" x1="103" y1="78" x2="103" y2="46"/>
      <line class="cls-f" x1="6" y1="78" x2="6" y2="46"/>
      <line class="cls-f" x1="55" y1="105" x2="55" y2="76"/>
      <line class="cls-f" x1="16.3" y1="27.6" x2="43.8" y2="11.73"/>
      <line class="cls-f" x1="65.07" y1="11.73" x2="92.56" y2="27.6"/>
      <line class="cls-f" x1="16.3" y1="97.64" x2="43.8" y2="113.52"/>
      <line class="cls-f" x1="65.07" y1="113.52" x2="92.56" y2="97.64"/>
      <path class="st0" d="M 47.571 65.886 C 47.571 65.886 47.616 65.827 47.571 65.886 C 47.326 66.208 49.469 63.286 51.338 62.379 C 51.448 62.326 51.557 62.275 51.665 62.225 L 51.659 62.21 C 51.659 62.21 52.27 64.1 54.403 64.909 L 54.403 64.909 C 51.99 66.969 48.411 67.146 48.395 67.124 C 47.912 67.124 47.503 66.706 47.503 66.223 C 47.503 66.066 47.508 65.989 47.581 65.861" style="fill: rgb(88, 24, 69);"/>
      <path class="st1" d="M 54.447 53.21 C 54.133 53.21 53.858 53.375 53.703 53.623 L 47.503 66.036 L 47.56 66.025 C 47.807 65.704 49.47 63.397 51.338 62.49 C 53.237 61.568 54.962 61.232 55.842 61.113 C 55.855 61.043 55.868 60.973 55.879 60.903 C 56.257 58.528 55.779 55.824 55.361 54.111 C 55.283 53.886 55.22 53.715 55.18 53.611 C 55.178 53.607 55.177 53.604 55.177 53.604 L 55.171 53.596 C 55.015 53.363 54.748 53.21 54.447 53.21" style="fill: rgb(255, 87, 51);"/>
      <path class="st2" d="M 48.353 67.164 L 60.694 67.164 C 61.177 67.164 61.57 66.741 61.57 66.258 C 61.57 66.098 61.528 65.926 61.453 65.797 L 61.455 65.796 L 55.129 53.488 L 55.134 53.494 C 55.134 53.494 56.773 57.543 56.414 60.94 C 56.325 61.792 56.109 62.623 55.71 63.319 C 53.655 66.904 48.532 67.096 48.353 67.164" style="fill: rgb(144, 12, 63); opacity: 0.9;"/>
    </g>
  </g>
</svg>