<?xml version="1.0" encoding="utf-8"?>
<svg viewBox="0 0 100 100" x="0px" y="0px" width="0px" height="0px" xmlns="http://www.w3.org/2000/svg">
  <title>NounProjectIcons</title>
  <path d="M76.53,42.66a.74.74,0,0,1,.73.73V56.6a.74.74,0,0,1-.73.73H23.47a.74.74,0,0,1-.73-.73V43.4a.74.74,0,0,1,.73-.73H76.53m0-.73H23.47A1.47,1.47,0,0,0,22,43.4V56.6a1.47,1.47,0,0,0,1.47,1.47H76.53A1.47,1.47,0,0,0,78,56.6V43.4a1.47,1.47,0,0,0-1.47-1.47Z" style="stroke-width: 2px; stroke: rgb(50, 50, 51);"/>
  <path d="M62.68,52.62a.52.52,0,0,1-.29-1l6.2-4.16a.52.52,0,1,1,.58.87L63,52.53A.53.53,0,0,1,62.68,52.62Z" style="stroke: rgb(50, 50, 51);"/>
  <path d="M68.87,52.63a.52.52,0,0,1-.29-.09l-6.19-4.18a.52.52,0,1,1,.59-.87l6.19,4.18a.52.52,0,0,1-.29,1Z" style="stroke: rgb(50, 50, 51);"/>
  <path d="M65.81,54.19a.52.52,0,0,1-.52-.52V46.35a.53.53,0,0,1,.52-.53h0a.52.52,0,0,1,.52.52v7.32a.53.53,0,0,1-.52.53Z" style="stroke: rgb(50, 50, 51);"/>
  <path d="M41.64,52.62a.52.52,0,0,1-.29-1l6.2-4.16a.52.52,0,1,1,.58.87l-6.2,4.16A.53.53,0,0,1,41.64,52.62Z" style="stroke: rgb(50, 50, 51);"/>
  <path d="M47.83,52.63a.52.52,0,0,1-.29-.09l-6.19-4.18a.52.52,0,1,1,.59-.87l6.19,4.18a.52.52,0,0,1-.29,1Z" style="stroke: rgb(50, 50, 51);"/>
  <path d="M44.78,54.19a.52.52,0,0,1-.52-.52V46.35a.52.52,0,0,1,.52-.52h0a.53.53,0,0,1,.52.52v7.32a.53.53,0,0,1-.52.53Z" style="stroke: rgb(50, 50, 51);"/>
  <path d="M31.13,52.62a.52.52,0,0,1-.29-1L37,47.5a.52.52,0,0,1,.58.87l-6.2,4.16A.53.53,0,0,1,31.13,52.62Z" style="stroke: rgb(50, 50, 51);"/>
  <path d="M37.32,52.63a.52.52,0,0,1-.29-.09l-6.19-4.18a.52.52,0,1,1,.59-.87l6.19,4.18a.52.52,0,0,1-.29,1Z" style="stroke: rgb(50, 50, 51);"/>
  <path d="M34.26,54.19a.52.52,0,0,1-.52-.52V46.35a.52.52,0,0,1,.52-.52h0a.53.53,0,0,1,.52.52v7.32a.53.53,0,0,1-.52.53Z" style="stroke: rgb(50, 50, 51);"/>
  <path d="M48.83,91a.68.68,0,0,1-.67-.7h0a.68.68,0,0,1,.7-.66h0a.68.68,0,0,1,.67.7h0a.68.68,0,0,1-.68.66h0Zm3.64-.73a.67.67,0,0,1,.63-.73h0a.69.69,0,0,1,.74.62h0a.7.7,0,0,1-.63.74h-.05A.67.67,0,0,1,52.47,90.3Zm-8,.38h0a.69.69,0,0,1-.58-.77h0a.68.68,0,0,1,.77-.58h0a.68.68,0,0,1,.58.76h0a.68.68,0,0,1-.67.6h-.09Zm12.27-.87a.68.68,0,0,1,.55-.79h0a.67.67,0,0,1,.79.54h0a.68.68,0,0,1-.54.8h-.13A.68.68,0,0,1,56.74,89.81Zm-16.57,0a.68.68,0,0,1-.5-.82h0a.68.68,0,0,1,.82-.5h0a.68.68,0,0,1,.5.82h0a.68.68,0,0,1-.66.52h0A.4.4,0,0,1,40.17,89.86Zm20.77-1A.69.69,0,0,1,61.4,88h0a.69.69,0,0,1,.85.46h0a.69.69,0,0,1-.46.85h0a.64.64,0,0,1-.19,0h0A.68.68,0,0,1,60.94,88.87Zm-25-.28h0a.68.68,0,0,1-.41-.87h0a.68.68,0,0,1,.87-.41h0a.67.67,0,0,1,.41.87h0a.67.67,0,0,1-.64.45h0A.62.62,0,0,1,36,88.59Zm29-1.1a.68.68,0,0,1,.36-.9h0a.68.68,0,0,1,.89.37h0a.68.68,0,0,1-.36.89h0a.65.65,0,0,1-.27,0h0A.67.67,0,0,1,65,87.49ZM32,86.88h0a.68.68,0,0,1-.31-.91h0a.69.69,0,0,1,.91-.32h0a.68.68,0,0,1,.31.92h0a.68.68,0,0,1-.61.38h0A.66.66,0,0,1,32,86.88Zm37-1.21a.67.67,0,0,1,.26-.92h0a.68.68,0,0,1,.93.26h0a.69.69,0,0,1-.27.93h0a.62.62,0,0,1-.32.09h0A.68.68,0,0,1,68.92,85.67Zm-40.79-.93a.68.68,0,0,1-.21-.94h0a.69.69,0,0,1,.94-.21h0a.68.68,0,0,1,.21.94h0a.67.67,0,0,1-.58.32h0A.7.7,0,0,1,28.13,84.74ZM72.6,83.46a.69.69,0,0,1,.17-1h0a.68.68,0,0,1,1,.16h0a.68.68,0,0,1-.17,1h0a.63.63,0,0,1-.39.13h0A.7.7,0,0,1,72.6,83.46Zm-48-1.24h0a.68.68,0,0,1-.11-1h0a.66.66,0,0,1,.95-.11h0a.67.67,0,0,1,.12,1h0a.7.7,0,0,1-.54.26h0A.71.71,0,0,1,24.56,82.22ZM76,80.86a.67.67,0,0,1,.06-1h0a.68.68,0,0,1,1,.06h0a.68.68,0,0,1-.06,1h0a.7.7,0,0,1-.45.17h0A.67.67,0,0,1,76,80.86ZM21.27,79.32h0a.67.67,0,0,1,0-1h0a.68.68,0,0,1,1,0h0a.68.68,0,0,1,0,1h0a.68.68,0,0,1-.49.21h0A.71.71,0,0,1,21.27,79.32Zm57.9-1.41a.68.68,0,0,1,0-1h0a.68.68,0,0,1,1,0h0a.68.68,0,0,1,0,1h0a.65.65,0,0,1-.5.22h0A.68.68,0,0,1,79.17,77.91ZM18.32,76.1a.68.68,0,0,1,.09-1h0a.68.68,0,0,1,1,.09h0a.68.68,0,0,1-.09,1h0a.66.66,0,0,1-.44.16h0A.68.68,0,0,1,18.32,76.1ZM82,74.65a.69.69,0,0,1-.14-1h0a.67.67,0,0,1,1-.13h0a.67.67,0,0,1,.14,1h0a.67.67,0,0,1-.55.27h0A.66.66,0,0,1,82,74.65ZM15.72,72.58a.67.67,0,0,1,.19-.94h0a.68.68,0,0,1,.94.19h0a.69.69,0,0,1-.19,1h0a.76.76,0,0,1-.37.11h0A.67.67,0,0,1,15.72,72.58Zm68.7-1.47a.69.69,0,0,1-.24-.94h0a.7.7,0,0,1,.94-.24h0a.7.7,0,0,1,.24.94h0a.7.7,0,0,1-.59.33h0A.72.72,0,0,1,84.42,71.11ZM13.5,68.81a.68.68,0,0,1,.3-.92h0a.69.69,0,0,1,.92.29h0a.68.68,0,0,1-.3.92h0a.69.69,0,0,1-.31.08h0A.7.7,0,0,1,13.5,68.81Zm73-1.49a.67.67,0,0,1-.34-.9h0a.69.69,0,0,1,.9-.34h0a.69.69,0,0,1,.34.9h0a.69.69,0,0,1-.62.4h0A.55.55,0,0,1,86.48,67.32Zm-74.77-2.5h0a.68.68,0,0,1,.39-.88h0a.68.68,0,0,1,.88.39h0a.69.69,0,0,1-.39.88h0a.69.69,0,0,1-.25,0h0A.67.67,0,0,1,11.71,64.82Zm76.4-1.48a.68.68,0,0,1-.43-.86h0a.68.68,0,0,1,.86-.43h0a.69.69,0,0,1,.44.86h0a.69.69,0,0,1-.65.47h0A.6.6,0,0,1,88.11,63.34ZM10.35,60.66a.69.69,0,0,1,.48-.84h0a.68.68,0,0,1,.83.49h0a.67.67,0,0,1-.48.83h0a.51.51,0,0,1-.17,0h0A.68.68,0,0,1,10.35,60.66Zm79-1.45a.68.68,0,0,1-.53-.81h0a.68.68,0,0,1,.81-.52h0a.68.68,0,0,1,.53.81h0a.68.68,0,0,1-.67.54h0ZM9.44,56.38h0A.69.69,0,0,1,10,55.6h0a.69.69,0,0,1,.78.57h0a.68.68,0,0,1-.57.78h-.1A.7.7,0,0,1,9.44,56.38ZM90.07,55a.68.68,0,0,1-.61-.75h0a.68.68,0,0,1,.75-.6h0a.68.68,0,0,1,.61.75h0a.69.69,0,0,1-.68.61h-.07ZM9,52a.68.68,0,0,1,.65-.72h0a.69.69,0,0,1,.71.65h0a.67.67,0,0,1-.65.71h0A.68.68,0,0,1,9,52Zm80.69-2h0a.67.67,0,0,1,.68-.68h0A.68.68,0,0,1,91,50h0a.68.68,0,0,1-.68.68h0A.67.67,0,0,1,89.69,50Zm-80-1.63A.68.68,0,0,1,9,47.65H9A.68.68,0,0,1,9.74,47h0a.68.68,0,0,1,.64.72h0a.68.68,0,0,1-.68.64h0Zm79.83-2.29a.68.68,0,0,1,.62-.74h0a.67.67,0,0,1,.74.61h0a.68.68,0,0,1-.61.74h-.07A.7.7,0,0,1,89.49,46.08Zm-79.43-2a.69.69,0,0,1-.57-.79h0a.69.69,0,0,1,.79-.56h0a.68.68,0,0,1,.56.79h0a.69.69,0,0,1-.67.57h-.11Zm78.8-2.19h0a.68.68,0,0,1,.53-.81h0a.69.69,0,0,1,.8.53h0a.68.68,0,0,1-.53.81h-.13A.68.68,0,0,1,88.86,41.9Zm-77.95-2a.69.69,0,0,1-.48-.84h0a.68.68,0,0,1,.84-.47h0a.67.67,0,0,1,.48.83h0a.68.68,0,0,1-.66.5h0A.55.55,0,0,1,10.91,39.87Zm76.87-2.06a.68.68,0,0,1,.44-.86h0a.67.67,0,0,1,.85.44h0a.68.68,0,0,1-.43.86h0l-.21,0h0A.67.67,0,0,1,87.78,37.81ZM12.21,35.76a.67.67,0,0,1-.38-.88h0a.69.69,0,0,1,.89-.38h0a.67.67,0,0,1,.38.88h0a.68.68,0,0,1-.63.43h0A.53.53,0,0,1,12.21,35.76Zm74.06-1.9a.68.68,0,0,1,.34-.9h0a.68.68,0,0,1,.9.35h0a.67.67,0,0,1-.34.89h0a.59.59,0,0,1-.28.06h0A.68.68,0,0,1,86.27,33.86Zm-72.33-2a.68.68,0,0,1-.29-.92h0a.68.68,0,0,1,.92-.28h0a.68.68,0,0,1,.29.92h0a.68.68,0,0,1-.61.36h0A.7.7,0,0,1,13.94,31.83Zm70.4-1.73a.69.69,0,0,1,.25-.94h0a.7.7,0,0,1,.93.25h0a.67.67,0,0,1-.25.93h0a.61.61,0,0,1-.34.1h0A.7.7,0,0,1,84.34,30.1Zm-68.26-2a.68.68,0,0,1-.18-.94h0a.67.67,0,0,1,.94-.19h0a.69.69,0,0,1,.19.95h0a.7.7,0,0,1-.57.3h0A.68.68,0,0,1,16.08,28.09ZM82,26.56a.7.7,0,0,1,.15-1h0a.69.69,0,0,1,1,.15h0a.68.68,0,0,1-.14.95h0a.71.71,0,0,1-.41.13h0A.69.69,0,0,1,82,26.56Zm-63.41-2a.68.68,0,0,1-.09-1h0a.68.68,0,0,1,1-.09h0a.68.68,0,0,1,.09,1h0a.66.66,0,0,1-.52.25h0A.67.67,0,0,1,18.61,24.61Zm60.74-1.33a.67.67,0,0,1,0-1h0a.69.69,0,0,1,1,0h0a.69.69,0,0,1,0,1h0a.68.68,0,0,1-.46.18h0A.66.66,0,0,1,79.35,23.28ZM21.49,21.41a.68.68,0,0,1,0-1h0a.68.68,0,0,1,1,0h0a.68.68,0,0,1,0,1h0a.66.66,0,0,1-.47.19h0A.66.66,0,0,1,21.49,21.41Zm54.84-1.1a.68.68,0,0,1,0-1h0a.68.68,0,0,1,1-.06h0a.68.68,0,0,1,.06,1h0a.71.71,0,0,1-.51.23h0A.73.73,0,0,1,76.33,20.31ZM24.7,18.54a.68.68,0,0,1,.11-1h0a.68.68,0,0,1,1,.12h0a.68.68,0,0,1-.12,1h0a.64.64,0,0,1-.42.14h0A.67.67,0,0,1,24.7,18.54ZM73,17.67h0a.69.69,0,0,1-.15-1h0a.68.68,0,0,1,.95-.16h0a.69.69,0,0,1,.17.95h0a.7.7,0,0,1-.56.29h0A.68.68,0,0,1,73,17.67ZM28.18,16a.69.69,0,0,1,.23-.94h0a.69.69,0,0,1,.94.22h0a.68.68,0,0,1-.22.94h0a.64.64,0,0,1-.35.1h0A.69.69,0,0,1,28.18,16Zm41.28-.62a.68.68,0,0,1-.26-.93h0a.68.68,0,0,1,.92-.26h0a.68.68,0,0,1,.26.93h0a.67.67,0,0,1-.59.35h0A.65.65,0,0,1,69.46,15.4ZM31.92,13.89a.68.68,0,0,1,.32-.91h0a.68.68,0,0,1,.91.32h0a.68.68,0,0,1-.32.91h0a.59.59,0,0,1-.29.07h0A.7.7,0,0,1,31.92,13.89Zm33.74-.37h0a.67.67,0,0,1-.36-.89h0a.67.67,0,0,1,.89-.36h0a.68.68,0,0,1,.36.9h0a.67.67,0,0,1-.63.41h0A.66.66,0,0,1,65.66,13.52ZM35.87,12.17a.68.68,0,0,1,.41-.87h0a.68.68,0,0,1,.87.41h0a.69.69,0,0,1-.41.88h0a.65.65,0,0,1-.23,0h0A.67.67,0,0,1,35.87,12.17Zm25.82-.1h0a.69.69,0,0,1-.45-.86h0a.68.68,0,0,1,.85-.45h0a.67.67,0,0,1,.45.85h0a.68.68,0,0,1-.65.49h0ZM40,10.88a.68.68,0,0,1,.51-.82h0a.68.68,0,0,1,.82.5h0a.7.7,0,0,1-.51.83h0l-.16,0h0A.69.69,0,0,1,40,10.88ZM57.59,11a.68.68,0,0,1-.54-.8h0a.68.68,0,0,1,.8-.54h0a.68.68,0,0,1,.54.8h0a.67.67,0,0,1-.67.55h-.13Zm-13.4-1a.68.68,0,0,1,.59-.76h0a.67.67,0,0,1,.76.59h0a.68.68,0,0,1-.59.76h-.08A.7.7,0,0,1,44.19,10Zm9.21.42a.68.68,0,0,1-.62-.74h0a.68.68,0,0,1,.74-.62h0a.68.68,0,0,1,.62.74h0a.68.68,0,0,1-.68.62H53.4Zm-4.92-.8a.68.68,0,0,1,.66-.7h0a.68.68,0,0,1,.7.67h0a.67.67,0,0,1-.67.69h0A.67.67,0,0,1,48.48,9.66Z" style="stroke: rgb(50, 50, 51);"/>
  <path d="M50,6A44,44,0,1,0,94,50,44,44,0,0,0,50,6Zm0,.88A43.12,43.12,0,1,1,6.88,50,43.19,43.19,0,0,1,50,6.88" style="stroke-width: 2px; stroke: rgb(50, 50, 51);"/>
  <path class="st0" d="M 51.432 53.244 C 51.432 53.244 51.458 53.21 51.432 53.244 C 51.291 53.429 52.525 51.747 53.602 51.224 C 53.665 51.194 53.728 51.165 53.79 51.136 L 53.786 51.127 C 53.786 51.127 54.138 52.216 55.367 52.681 L 55.367 52.681 C 53.977 53.868 51.916 53.97 51.907 53.957 C 51.629 53.957 51.393 53.716 51.393 53.438 C 51.393 53.348 51.396 53.303 51.438 53.23" style="fill: rgb(88, 24, 69);"/>
  <path class="st1" d="M 55.392 45.944 C 55.211 45.944 55.053 46.039 54.963 46.182 L 51.393 53.33 L 51.426 53.324 C 51.568 53.139 52.526 51.811 53.602 51.288 C 54.695 50.757 55.688 50.564 56.195 50.495 C 56.203 50.455 56.21 50.415 56.217 50.374 C 56.434 49.007 56.159 47.45 55.918 46.463 C 55.873 46.333 55.837 46.235 55.814 46.175 C 55.813 46.173 55.812 46.171 55.812 46.171 L 55.809 46.166 C 55.719 46.032 55.565 45.944 55.392 45.944" style="fill: rgb(255, 87, 51);"/>
  <path class="st2" d="M 51.882 53.98 L 58.989 53.98 C 59.268 53.98 59.494 53.736 59.494 53.458 C 59.494 53.366 59.47 53.267 59.427 53.193 L 59.428 53.192 L 55.785 46.104 L 55.788 46.108 C 55.788 46.108 56.731 48.439 56.525 50.396 C 56.473 50.886 56.349 51.365 56.119 51.766 C 54.936 53.83 51.986 53.941 51.882 53.98" style="fill: rgb(144, 12, 63); opacity: 0.9;"/>
</svg>